<svg version="1.0" xmlns="http://www.w3.org/2000/svg" width="1306.667" height="1306.667" viewBox="0 0 980 980"><path d="M617.5 1.4c-14 4.6-23 12.2-29.4 24.6-8 15.4-10 33.1-6.1 54.6 1.1 6 2 13.4 2 16.5 0 12.4-6.8 30.1-13.9 36-2 1.7-6.9 4.6-10.9 6.6l-7.3 3.7-18.7.8c-30.6 1.3-37.5 3-52.3 12.3-10.4 6.6-17.3 9.8-33.4 15.5-24.6 8.7-38.8 16.6-66.7 37.2-6.4 4.7-18.2 12.5-26.3 17.4-8.1 4.9-16.9 10.9-19.6 13.4-15.2 14.2-25 59.2-27.9 128-2.7 63-2.7 64.2-5.9 74.2-6.3 19.7-6.6 33.2-1 44.5 1.6 3.5 4 6.8 5.2 7.5 3.1 1.6 26.7 2.3 36.5.9 14.1-1.8 16.9-4.4 18.1-16.8.5-4.6 1.7-9.5 3-12 5.3-10.5.1-23.9-13.4-33.9-2.5-1.8-2.8-2.6-2.6-7.8.3-13.5 8.7-47.7 19.2-77.9 9-25.8 12.4-39.3 14-54.5l1.3-12.1 4.6-.7c17.1-2.3 49.9-14.8 71.1-26.9 16.2-9.3 17.5-9.9 20.8-8.5 3.4 1.4 4.4 4.4 6.1 19.5 1.6 14.1 3.6 22.2 13.6 53.5 13.4 42.4 16.4 56 16.4 73.8 0 17.8-3.5 30.4-14.1 50.6-22.7 43.2-23.2 44.5-23.3 74.6 0 16.4.4 23.1 1.6 28.4l1.6 6.8-8.2 12.7c-19.2 29.3-30.6 54-46.6 100.6-11.6 33.9-19.3 47.5-30.4 54-5.6 3.2-16.2 5.9-33.6 8.5-38.9 5.8-45.4 9-120.5 57.2-26.8 17.1-42.2 26.4-47.7 28.5-3.7 1.5-9.3 1.7-40.3 2-22.2.1-37.8.7-40.7 1.4-2.6.6-6.6 2.4-8.9 4.1-6.8 4.9-7.2 6.9-7.9 35.8l-.6 25.5-3.8 9c-8.2 19.8-7.9 18.4-8.4 38.7C81.4 962.9 85 976 95 976c3.7 0 8.6-5.8 13.9-16.4 9.6-19.6 41-63.6 56-78.7 15.4-15.3 29.8-21.1 100.6-40.3 41.1-11.1 77.9-22.8 110-34.8 21.7-8.1 36.6-13.2 51.3-17.3 20.1-5.7 23.5-7.8 40.7-24.4 8.2-8.1 22.2-20.7 31-28.1 44.7-37.6 55.7-52 93.5-122.4 3.5-6.5 7-12 7.7-12.3.7-.3 8.8 1.8 18.1 4.6 30.1 9.1 39.9 10.9 100.2 18.6 48.4 6.2 63.1 8.3 65 9.5 1 .6 0 3.1-3.8 10.2-16.2 30-20.9 59.5-18.3 113.6 1.6 32.4 1.5 57.5-.3 70.3-3.8 26.7-8.8 44.1-18.7 64.9-7.5 16-9.9 23.6-9.9 32 0 7.5 1.5 12.4 5.2 16.6 4.3 4.8 7.4 6.2 29.8 13.4 10.7 3.4 28.2 9.6 38.9 13.6 25.3 9.7 32.2 11.4 45.4 11.4 17.6 0 37.7-5.1 43.7-11.1 6.6-6.7 2.9-11.5-16.5-21.8-21.4-11.4-34.2-20.8-47.9-35.1-9.9-10.5-15.3-20.4-18.2-33.4-4.4-20.7.9-46.9 35.7-173.7 26.1-95.4 23.2-82.8 23.3-102.4l.1-17-3-5.4c-4.9-8.9-5.3-9.2-60-40.2-35.7-20.2-57.3-31.2-79-39.9-17.1-6.9-59.6-20.9-76.2-25.1-11.4-2.9-13.3-3.7-13.3-5.3 0-1.1 3.1-14 7-28.6 9.1-34.9 12.6-50.8 20-91 3.3-18.4 6.6-35.9 7.3-38.9l1.2-5.4 8.8 6.6c25.1 19.3 69.9 42.7 81.4 42.7 4.5 0 8.1-1.9 17.9-9.6 18-14 35.1-35.5 46.7-58.9 6.7-13.5 9.1-19 16.8-39.8 8.2-22 10.9-27.2 19-36.2 7.5-8.5 10.9-14.7 13.4-24.7 1.7-6.6 1.7-6.7-.7-12-4.8-10.5-21.8-23.6-31.7-24.6-4.3-.4-5.2-.1-8.4 2.7-2 1.8-3.8 4-4.1 4.9-.3.9-2.9 2.8-5.7 4-4.2 2-5.4 3.2-7.1 6.9-2.9 6.5-3.4 18-1.3 27.3 3.2 13.9 3.3 13.3-2.4 24.5-7.1 13.7-13.3 21.7-25.9 33.3-13.8 12.5-27 25.7-30.8 30.5l-2.9 3.7-7-8.5c-7.1-8.8-16.1-17.8-29.8-29.9-4.3-3.7-8.4-7.8-9.2-9-.8-1.1-2.3-6.8-3.5-12.6-4.2-20.8-11.7-33.1-26.7-44-10.2-7.4-23.8-20.2-26-24.4-1-1.8-1.3-4-.8-6.3l.6-3.4 13.3.3c15.7.4 17-.2 18.1-8.3.4-2.7 1.6-6 2.6-7.3 1.9-2.4 2.9-7.7 3.3-16.1.1-5.4 1.1-6.5 5.2-6.5 4.5 0 7.4-1.6 7.4-3.9 0-1-1.1-6.3-2.5-11.6l-2.6-9.7 2.6-9.3c3-11.2 3.1-15.4.5-26.5-5.9-24.7-21.1-41.9-41.7-47.6-8-2.2-39.2-2.9-44.8-1z"/></svg>